<?xml version="1.0" encoding="utf-8"?>
<!-- Generator: Adobe Illustrator 22.0.1, SVG Export Plug-In . SVG Version: 6.00 Build 0)  -->
<svg version="1.1" id="Layer_1" xmlns="http://www.w3.org/2000/svg" xmlns:xlink="http://www.w3.org/1999/xlink" x="0px" y="0px"
	 viewBox="0 0 120 120" style="enable-background:new 0 0 120 120;" xml:space="preserve">
<style type="text/css">
	.st0{fill-rule:evenodd;clip-rule:evenodd;fill:#231F20;}
	.st1{fill-rule:evenodd;clip-rule:evenodd;fill:#EB2227;}
	.st2{fill-rule:evenodd;clip-rule:evenodd;fill:#FFFFFF;}
	.st3{fill-rule:evenodd;clip-rule:evenodd;fill:#194787;}
	.st4{fill:#231F20;}
</style>
<g>
	<path class="st0" d="M11.8378,48.391l-0.2901,0.1432c0.0531,0.1202,0.092,0.2537,0.0724,0.3926
		c-0.0565,0.4031-0.6561,0.3341-0.9212,0.297l-4.545-0.6401l-0.3625-0.0494c-1.2644-0.1787-1.4925-0.4661-2.0072-1.1477
		l-0.2441,0.2202l0.5889,0.7497l-1.1564,1.1698l1.3953,1.7703l0.2387-0.1796l-0.6349-0.8267l0.573-0.5438l1.9596,0.2758
		c0.1626,0.3493,0.1786,0.749,0.1255,1.124c-0.0849,0.3988-0.2917,0.7665-0.5855,1.0371l-3.5863-0.5031l-0.0282,0.1936
		c0.3359,0.3448,0.3819,0.9187,0.3165,1.3777c-0.1257,0.9045-0.8066,1.6021-0.9321,2.505c-0.1025,1.3334,1.237,1.7772,2.2946,1.9257
		c0.0699,0.0107,0.1389,0.0196,0.2113,0.0159l0.0389-0.2794c-0.695-0.0972-1.5121-0.4386-1.3918-1.2999
		c0.0797-0.557,0.283-1.0945,0.3607-1.6517c0.0301-0.2227,0.0496-0.4614,0.0373-0.6755c0.9301,1.9594,1.9241,3.5598,4.2601,3.888
		c2.0019,0.2801,4.0586-0.933,4.3503-3.0178c0.2247-1.5979-0.2617-2.674-1.0963-3.995c0.8515,0.0902,1.3803-0.0478,1.9293-0.7215
		L11.8378,48.391L11.8378,48.391z M11.1056,52.8952L8.2973,52.499c-0.1521-0.3325-0.2282-0.6976-0.1786-1.0583
		c0.0583-0.4174,0.2687-0.7986,0.5128-1.1186l1.7508,0.2457C10.7961,51.2638,11.1223,52.0613,11.1056,52.8952L11.1056,52.8952z
		 M7.9348,52.4496L6.421,52.2373c0.2519-0.291,0.4455-0.6606,0.4985-1.0364c0.0549-0.389,0.0496-0.7586-0.0672-1.1282l1.4308,0.1997
		c-0.2318,0.3361-0.4103,0.7082-0.4687,1.1247C7.7649,51.7448,7.8268,52.1082,7.9348,52.4496L7.9348,52.4496z M3.1794,52.0932
		l7.9244,1.1141c-0.0177,0.1248-0.0194,0.238-0.0371,0.3616c-0.0954,0.6827-0.3749,1.3529-0.8542,1.8375
		c-0.2016-0.481-0.4898-0.9478-0.8153-1.3618c-0.4103-0.5119-0.7233-0.5976-1.3493-0.6861l-2.9463-0.4147l-0.488-0.0681
		C4.0035,52.7909,3.5615,52.6017,3.1794,52.0932L3.1794,52.0932z M9.9083,55.6628c-0.801,0.5518-1.7913,0.7383-2.7516,0.6048
		c-1.9311-0.2724-3.2292-1.7314-3.8588-3.5051c0.7535,0.7861,1.2379,1.4784,2.3918,1.6403l2.4608,0.3457
		C8.8455,54.8457,9.5334,54.9988,9.9083,55.6628z"/>
	<path class="st0" d="M7.406,46.0266l0.2503-0.0954c-0.031-0.1291-0.0628-0.2564-0.0239-0.3767
		c0.0831-0.2548,0.389-0.199,0.6438-0.1168c0.1061,0.0353,0.2077,0.0822,0.274,0.1043l3.4184,1.1106l0.3113,0.6773l1.344-0.8187
		l-0.5748-1.4563l-0.6278,0.2979l-3.6589-1.1883l-0.4616-1.1689l0.7039-0.3466l3.3371,1.084
		c0.9355,0.3042,1.383,0.3316,2.237-0.1574l-0.6791-1.772l-0.32,0.0733c0.0512,0.1635,0.1626,0.3193,0.1061,0.4926
		c-0.0426,0.1326-0.1769,0.1776-0.2963,0.1838c-0.222,0.0018-0.4484-0.0724-0.6622-0.1414l-0.1999-0.0654l-2.2441-0.7287
		c-0.8401-0.2731-1.1477-0.4614-1.5139-1.245l-0.274,0.1177l0.396,0.8223l-1.2732,0.649l0.8241,2.0983
		c-0.6809-0.2211-1.0434-0.0585-1.6093,0.3182L7.406,46.0266z"/>
	<path class="st0" d="M15.4595,38.5195l-0.2865,0.0565l0.1485,0.5271l-0.4793,0.2175l-3.9629-1.7658l-0.2043-0.6128l-1.3468,0.6764
		l0.36,1.4369l0.5844-0.2794l3.1426,1.3989l0.1289,0.0583c0.3705,0.1644,0.6809,0.3343,0.6633,0.787l0.1148,0.0512
		c0.4828-0.3236,1.0505-0.5625,1.5952-0.7499L15.4595,38.5195L15.4595,38.5195z M8.2777,37.0129l0.1628-0.2972l-0.9762-1.71
		l-0.511,1.0469L8.2777,37.0129z"/>
	<path class="st0" d="M12.7874,34.0012c-0.8931-0.4457-1.9099,0.2582-2.4865-0.0619c-0.3377-0.2025-0.4049-0.6579-0.4607-1.0248
		l-0.2378,0.0273c0.0034,0.8048,0.1396,1.7155,0.9143,2.1443c0.7727,0.4288,1.0929-0.1485,2.26,0.4978l2.1231,1.1778l0.2325,0.1291
		c0.3202,0.1767,0.6012,0.3643,0.5588,0.7905l0.1344,0.0761c0.5147-0.8718,1.2716-1.3679,2.2087-1.6977
		c-0.2157-0.8259-0.2121-1.6428-0.0141-2.4635l-2.9603-1.641c-1.1655-0.6463-1.5103-0.8064-2.7341-0.2812L12.7874,34.0012
		L12.7874,34.0012z M16.1015,35.8385l-3.0329-1.6809l-0.2423-1.2423c0.7073-0.2334,0.9054-0.1248,1.5545,0.236l3.0329,1.681
		C16.968,35.1453,16.5258,35.4796,16.1015,35.8385z"/>
	<path class="st0" d="M21.0584,29.0088l-0.2405-0.0016l-0.0302,1.2095c-0.4209,0.1981-0.8187,0.4113-1.2166,0.626l-1.0452-0.7604
		l-0.2104-3.2927l-2.7906,0.0893c-0.0795,1.0195-0.2724,2.0238-0.4766,3.0204l0.1478,0.038c0.2139-0.297,0.4534-0.243,0.7144-0.0538
		l0.2052,0.1494l2.0106,1.4598c0.375,0.2724,0.8064,0.5864,0.7499,1.1177l0.1132,0.0822c0.557-0.5509,1.2803-0.9257,1.9983-1.2202
		L21.0584,29.0088L21.0584,29.0088z M18.1511,29.8108l-2.4298-1.7667l2.329-0.077L18.1511,29.8108z"/>
	<path class="st0" d="M18.0768,25.4701l0.2582,0.0063l0.0123-0.5377c0.4245-0.0522,0.6119,0.0982,0.9337,0.389l2.0974,1.8878
		c0.345,0.3095,0.5996,0.6349,0.5165,1.1054l0.1132,0.1043c0.5463-0.4165,1.2343-0.5518,1.9081-0.5871l0.1141-2.1832l-0.2981-0.0036
		l-0.0565,0.818l-0.8364,0.1733l-2.9304-2.6403l0.0107-0.7463l1.3147,0.0706l-0.0185-1.3015l-1.6041-0.0849v1.7198
		c-0.4862-0.1927-1.0141-0.1954-1.4925-0.0203L18.0768,25.4701z"/>
	<path class="st0" d="M25.5308,25.7709l0.2387-0.0125c0.0813-0.6119,0.2635-0.9938,0.6545-1.3573
		c0.3696-0.3448,0.8328-0.5472,1.5137-0.6631c0.0672-0.8125,0.2794-1.4704,0.6684-2.1213l-1.8656-2.0027l-1.613,0.3721
		l-0.2581-2.0063c-0.1009-0.7693-0.1999-1.099-0.4386-1.3573c-0.2503-0.2671-0.5465-0.2972-0.7711-0.0858
		c-0.1751,0.1637-0.184,0.4006-0.0212,0.5739c0.3059,0.3307,0.4562,0.0371,0.7144,0.3149c0.1733,0.1847,0.0902,0.5288-0.1963,0.7975
		c-0.4315,0.4015-0.9373,0.6622-1.68,0.8745c0.0918,0.7975-0.0371,1.3395-0.5023,2.1584l1.6943,1.8161l1.4429-0.366L25.5308,25.7709
		L25.5308,25.7709z M26.2099,21.1251l1.2919,1.3857c-0.6005,0.1583-0.963,0.3245-1.2618,0.6021
		c-0.2564,0.2396-0.3607,0.3749-0.5836,0.7941l-0.3491-2.5546L26.2099,21.1251L26.2099,21.1251z M24.1674,21.5903l-1.2821-1.3759
		c0.4985-0.0831,1.0257-0.3414,1.3739-0.6677c0.1327-0.1246,0.184-0.1724,0.3821-0.4129l0.297,2.2752L24.1674,21.5903z"/>
	<path class="st0" d="M31.8026,19.1834l-0.2785-0.0902l-0.1239,0.534l-0.5252-0.0442l-2.612-3.4644l0.1202-0.634l-1.505-0.0619
		l-0.3819,1.4299l0.6454,0.0406l2.0709,2.7482l0.0849,0.1114c0.2439,0.3254,0.4332,0.6217,0.1979,1.0107l0.0761,0.1009
		c0.5784-0.0487,1.1903,0.0168,1.7578,0.1166L31.8026,19.1834L31.8026,19.1834z M26.2522,14.3839l0.2865-0.1813l-0.0246-1.9683
		l-0.9569,0.6675L26.2522,14.3839z"/>
	<path class="st0" d="M29.4903,14.5235l0.1211,0.1892l0.5085-0.3289l1.9329,2.978l0.1449,0.2246
		c0.2459,0.3767,0.4051,0.7251,0.2122,1.1505l0.1009,0.153c0.6208-0.2017,1.2944-0.222,1.9188-0.0585l0.5764-1.8462l-0.2954-0.092
		l-0.1733,0.5297c-0.2812-0.0187-0.5491-0.0451-0.8258-0.0328L31.272,13.634l0.9895-0.6429l-0.4122-0.6356l-0.9902,0.6436
		l-1.1389-1.7551L29.4903,14.5235z"/>
	<path class="st0" d="M33.6727,12.2856l0.2512,0.0963c0.0565-0.1362,0.1273-0.3122,0.2794-0.3855
		c0.2635-0.13,0.4438,0.1423,0.5659,0.3944c0.0485,0.1007,0.0866,0.2077,0.1184,0.2705l1.36,2.7888l0.1166,0.2407
		c0.5217,1.0715-0.1432,1.7569,0.2441,2.5501c0.35,0.7206,1.0929,0.7338,1.749,0.4138c0.3908-0.191,1.4891-0.8834,1.2502-1.375
		c-0.069-0.1389-0.2564-0.2025-0.3819-0.1423c-0.3926,0.1909-0.2794,0.9018-1.0239,1.2644
		c-0.4545,0.222-1.0257,0.2034-1.2725-0.3015c-0.3191-0.6552,0.2981-1.4085,0.6287-1.9152c0.9868-1.4652,2.1416-3.3237,1.275-5.1038
		c-0.3696-0.7577-1.0293-1.4033-1.8357-1.6809l-1.0576,2.2167c-0.3519-0.7187-0.6825-0.9478-1.4987-1.0177L33.6727,12.2856
		L33.6727,12.2856z M36.0866,11.9522l0.5252-1.0999c0.5377,0.2988,0.9603,0.7497,1.2309,1.3051
		c0.4739,0.9717,0.4051,2.2388-0.1061,3.1761L36.0866,11.9522z"/>
	<path class="st0" d="M47.2473,6.6655c-0.8364,0.0503-1.6323-0.0594-2.4175-0.3174c-0.3979,0.665-0.9266,1.2379-1.5563,1.6791
		l0.9321,3.0461c0.0991,0.3238,0.184,0.6508,0.2457,0.9974c0.0442,0.2361-0.0503,0.4122-0.1697,0.596l0.0494,0.161
		c0.9339-0.2122,1.8764-0.0601,2.7553,0.2742c0.4333-0.6474,1.0239-1.1673,1.6217-1.6571l-0.1025-0.335L47.2473,6.6655
		L47.2473,6.6655z M44.5592,7.5753l1.5809,0.1769l1.245,4.0691l-1.5809-0.1786L44.5592,7.5753z"/>
	<path class="st0" d="M53.1432,10.5392l-0.2264-0.1432l-0.3625,0.4138c-0.2564-0.1344-0.5252-0.2696-0.7923-0.3899l-0.8611-4.4361
		l0.9089-0.1769l-0.1414-0.7312l-0.9107,0.1769l-0.329-1.6934l1.2158,0.077l0.0132-1.1186l-1.4023-0.0706
		c-0.366,0.4721-0.7622,0.9337-1.1803,1.36l0.3332,1.7082l-0.5375,0.1052l0.1414,0.7294l0.5377-0.1043l0.6966,3.5828
		c0.0886,0.4554,0.1892,0.979-0.2034,1.3123l0.0301,0.1519c0.6597,0.0849,1.2805,0.337,1.8516,0.6977L53.1432,10.5392z"/>
	<path class="st0" d="M65.4021,8.608c-0.9956,0.7818-2.1559,1.2388-3.4325,1.2167l0.1219-7.0331
		c0.6561,0.3361,1.3238,0.5996,2.0515,0.7374l1.2997-1.1831c-1.0539-0.0194-2.0318-0.3033-2.9639-0.7966l-2.7783,2.2821
		l-0.0513,2.9755c-0.0105,0.6181-0.0194,1.0815-0.5447,1.4368c-0.5058-0.7656-0.7303-1.5438-0.7144-2.4836
		c0.0264-1.5014,0.8861-2.4556,1.9965-3.3494L60.263,2.2549c-1.7719,0.8656-2.9782,2.4326-3.0135,4.4539
		c-0.0406,2.3167,1.7473,4.468,4.1346,4.5095c1.7968,0.031,3.2044-0.9831,4.1701-2.4262L65.4021,8.608L65.4021,8.608z
		 M61.7856,2.6325l-0.1239,7.1729c-0.9389-0.115-1.7595-0.5643-2.3784-1.2928c1.3953-1.1256,1.7348-1.2741,1.7665-3.1135
		l0.0373-2.16L61.7856,2.6325z"/>
	<path class="st0" d="M70.6173,10.7762l-0.1088-0.2166l-1.092,0.5243c-0.3662-0.2847-0.7376-0.5438-1.1088-0.8011l0.2015-1.275
		l2.84-1.6836l-1.3475-2.4449c-0.9426,0.3901-1.9259,0.6765-2.9074,0.9471l0.0337,0.1467c0.3598,0.0585,0.4227,0.2954,0.3714,0.6155
		L67.4606,6.837l-0.3892,2.4537c-0.0724,0.458-0.1556,0.9849-0.6561,1.176l-0.0212,0.138c0.7428,0.2457,1.4078,0.7206,1.9949,1.2254
		L70.6173,10.7762L70.6173,10.7762z M68.5817,8.5488l0.4705-2.9666l1.1265,2.0409L68.5817,8.5488z"/>
	<path class="st0" d="M72.5466,6.4125l0.1079,0.2485c0.1255-0.0397,0.2528-0.0786,0.3749-0.046
		c0.2582,0.0699,0.2193,0.3785,0.1503,0.6358c-0.031,0.1088-0.0724,0.215-0.0902,0.2821l-0.9303,3.4697l-0.6595,0.3484l0.8877,1.298
		l1.4235-0.6499l-0.3307-0.611l0.9956-3.7165l1.1425-0.5224l0.3837,0.6843l-0.9073,3.3902
		c-0.2546,0.9496-0.2599,1.3987,0.276,2.2247l1.7312-0.7711l-0.0902-0.3147c-0.161,0.0583-0.3095,0.1786-0.4864,0.1307
		c-0.1353-0.0353-0.1856-0.1662-0.1979-0.2865c-0.0141-0.2209,0.0476-0.4527,0.1061-0.6666l0.0547-0.2034l0.6103-2.2795
		c0.2298-0.8542,0.4013-1.1707,1.1635-1.5775l-0.1317-0.2671l-0.8002,0.4377l-0.7144-1.237l-2.0532,0.9328
		c0.1856-0.6923,0.0053-1.046-0.4015-1.5907L72.5466,6.4125z"/>
	<path class="st0" d="M79.6945,8.2897l-0.0848,0.2079l0.5605,0.2273l-1.3315,3.2927l-0.0991,0.2475
		c-0.1681,0.4156-0.3625,0.7472-0.8223,0.8339l-0.0672,0.169c0.5217,0.3926,0.9248,0.9337,1.1496,1.5402l1.8417-0.5887
		l-0.0927-0.2954l-0.534,0.1626c-0.1451-0.2387-0.2787-0.4757-0.4457-0.695l1.6756-4.1505l1.0938,0.4404l0.2847-0.703
		l-1.0929-0.4411l0.7834-1.94L79.6945,8.2897z"/>
	<path class="st0" d="M82.8822,9.9787l0.0663,0.251l0.5199-0.1378c0.1653,0.3942,0.0742,0.6153-0.1166,1.0061l-1.2379,2.536
		c-0.2016,0.4165-0.4438,0.7515-0.9196,0.8002l-0.069,0.1389c0.5491,0.4093,0.8718,1.0327,1.0911,1.672l2.1292-0.4926
		l-0.0779-0.2865l-0.8028,0.1699l-0.3962-0.7551l1.7296-3.5457l0.7198-0.1963l0.2954,1.2848l1.245-0.3768l-0.3609-1.5659
		l-1.6517,0.4748c0.0512-0.5208-0.092-1.0293-0.3908-1.4404L82.8822,9.9787z"/>
	<path class="st0" d="M89.9251,19.408l-0.0214-0.2309c-0.1644-0.0025-0.3236,0.015-0.4669-0.0752
		c-0.251-0.2068-0.0583-0.5659,0.1043-0.8294l0.1416-0.2255l1.2803-2.0487c0.4687-0.7481,0.711-1.1115,1.5208-1.482l-0.0866-0.2034
		c-0.2441,0.046-0.4739,0.0681-0.7003-0.0724c-0.5713-0.3591-0.948-0.9744-1.2787-1.5289
		c-0.6331,0.0858-1.2309-0.0724-1.7649-0.4076c-0.0849-0.0512-0.2441-0.1679-0.2441-0.1679l-0.0636,1.268l-0.0496,1.1936
		c0,0-1.8109,0.4085-2.5112,1.5271c-0.4015,0.6429-0.2582,1.3944-0.0212,2.0735l2.3768-0.3042
		c-0.2935,0.6278-0.2724,1.071-0.1025,1.7234L89.9251,19.408L89.9251,19.408z M88.7473,15.4918l0.4694,0.6764l-0.8975,1.4395
		l-1.1494,0.1432c-0.1644-0.5835-0.2619-1.2236,0.0724-1.7585c0.276-0.4404,1.0293-1.1946,1.0726-1.1345L88.7473,15.4918
		L88.7473,15.4918z M90.2522,14.513l-0.885,1.4165l-0.4431-0.642l-0.3828-0.5527l0.0663-1.168l0.0496-0.9797L90.2522,14.513z"/>
	<path class="st0" d="M92.7476,21.7538l-0.023-0.2972l-0.3696,0.0009l-0.2618-0.7957l3.7331-4.9544
		c0.4917-0.6499,0.7879-0.9531,1.6235-0.9408l0.0779-0.222c-0.5518-0.2227-1.1901-0.3325-1.7843-0.2193
		c-0.092-0.4384-0.2459-0.8169-0.4687-1.1972l-0.184,0.1255c0.2972,0.6809,0.0353,1.0992-0.3874,1.659l-3.3123,4.3963
		c-0.2881,0.3803-0.4951,0.6101-0.9902,0.5181l-0.1282,0.169c0.427,0.5313,0.6843,1.1468,0.7506,1.8294L92.7476,21.7538z"/>
	<path class="st0" d="M95.2162,27.9619l1.5068,1.7968l1.871-1.5704c0.396,0.603,0.7727,1.5527,0.9301,2.2433l2.6863,0.3864
		l3.3018-2.7712c1.3775-1.1548,1.252-2.6828,0.9938-4.2981l-1.9648-0.5509l0.7747-0.6508l-0.1892-0.2246l-0.925,0.7763l-0.8-0.2104
		c0.8107-0.7146,0.931-1.7323,0.2264-2.5696c-0.4696-0.5597-1.1769-0.7923-1.8915-0.8134l-0.046,0.2954
		c0.329,0.1079,0.6456,0.2457,0.8719,0.5137c0.6595,0.7861-0.1733,1.6278-0.764,2.1247l-2.7746-0.7497l-0.1168,0.1883
		c0.2865,0.4933,0.3767,1.0583,0.3678,1.6171c-0.0388,0.8931-0.5516,1.5262-1.2077,2.0762
		c-0.9284-0.7781-2.1417-1.0443-3.3337-1.0885l-0.0494,0.2247c0.9708,0.304,1.7968,0.8745,2.49,1.6128L95.2162,27.9619
		L95.2162,27.9619z M96.3375,28.8179l6.7961-5.7032l0.7984,0.2095l-7.1613,6.01L96.3375,28.8179L96.3375,28.8179z M99.6373,27.3129
		l0.979-0.8205c0.4942,0.1724,1.0018,0.4058,1.3448,0.8144c0.3432,0.4085,0.4775,0.9187,0.5404,1.4333l-1.612,1.3529
		C100.6188,29.0928,100.2421,28.1634,99.6373,27.3129L99.6373,27.3129z M100.8752,26.2767l1.4723-1.2379
		c0.0761,0.4853,0.215,0.9743,0.5288,1.3511c0.3705,0.4411,0.8799,0.6755,1.3909,0.869l-1.4634,1.2283
		c-0.1052-0.4971-0.2751-0.9621-0.6092-1.3582C101.8515,26.7205,101.366,26.4482,100.8752,26.2767L100.8752,26.2767z
		 M102.6385,24.7946l1.634-1.3714l0.8259,0.2423c0.2847,1.0813,0.5429,2.4581-0.4245,3.2706
		c-0.0337,0.0282-0.0849,0.0531-0.1168,0.0797c-0.5288-0.1061-1.0717-0.4024-1.4235-0.8223
		C102.81,25.8071,102.6649,25.2863,102.6385,24.7946L102.6385,24.7946z M100.0194,22.2639l1.4889,0.421l-1.3987,1.1715
		C100.1874,23.3153,100.1326,22.7918,100.0194,22.2639z"/>
	<path class="st0" d="M106.3823,30.0062l-0.0991,0.2724l0.3359,0.1239l-0.0407,0.3678l-2.9108,1.7499l-0.2528,0.153
		c-0.2653,0.1583-0.4793,0.2378-0.7799,0.0098l-0.1574,0.0936c0.0813,0.6242,0.0036,1.26-0.138,1.8683l2.3909,0.7091
		c-0.6966,0.4192-0.9266,0.802-1.0027,1.6005l1.6501,0.6481l0.0954-0.3031c-0.1034-0.0364-0.2211-0.0972-0.2865-0.2052
		c-0.1874-0.3122,0.2812-0.5942,0.4862-0.718l3.1886-1.9152l0.5871,0.1874l0.2724-1.5403l-1.4643-0.4457l-0.0963,0.6315
		l-3.1169,1.8726l-1.2769-0.3801l0.1043-0.7818l3.4644-2.0832l0.5889,0.1876l0.2776-1.5262L106.3823,30.0062z"/>
	<path class="st0" d="M110.2605,36.3964l-0.1309,0.2343c0.1061,0.0788,0.2141,0.1557,0.2617,0.2742
		c0.0991,0.2457-0.1715,0.4006-0.4199,0.5005c-0.1034,0.0424-0.2131,0.0724-0.2767,0.0982l-3.3337,1.3457l-0.6737-0.3174
		l-0.5023,1.49l1.3759,0.7454l0.2899-0.6313l3.5671-1.4413l1.1052,0.5978l-0.3165,0.7187l-3.254,1.3149
		c-0.9107,0.3678-1.2732,0.6358-1.611,1.5597l1.6588,0.9188l0.1963-0.2609c-0.1432-0.092-0.3289-0.1396-0.396-0.3086
		c-0.0531-0.1309,0.0194-0.2512,0.1077-0.3316c0.1699-0.1441,0.3908-0.2334,0.5978-0.3174l0.1963-0.0795l2.1875-0.8834
		c0.818-0.3308,1.176-0.3839,1.9594-0.0196l0.1346-0.2662l-0.833-0.3758l0.5588-1.3156l-1.9808-1.0771
		c0.665-0.2687,0.8383-0.626,1.0293-1.2785L110.2605,36.3964z"/>
	<path class="st0" d="M112.6858,42.7673l-0.1547,0.2086l0.4571,0.345c-0.1282,0.2016-0.2282,0.4076-0.3352,0.6313
		c-0.6702-0.0301-1.3545,0.0319-2.0001,0.2291c-1.2484,0.3819-2.3148,1.1644-3.1602,1.4217
		c-0.7939,0.2423-1.4306,0.0275-2.0505-0.4589l-0.176,0.1414c0.9656,0.9974,1.9295,1.6562,3.3672,1.2167
		c0.8852-0.2705,1.6765-0.8046,2.5749-1.0824c0.7392-0.2236,1.4943-0.205,2.2326,0.0531c0.1619-0.5782,0.427-1.0999,0.7419-1.6075
		L112.6858,42.7673L112.6858,42.7673z M115.4003,43.625l0.0628,0.3484l1.8728,0.6012l-0.3493-1.1405L115.4003,43.625z"/>
	<path class="st0" d="M110.1958,52.9182l0.1521-0.1717c-0.1088-0.1228-0.23-0.228-0.2609-0.3942
		c-0.0212-0.3236,0.3732-0.4297,0.6775-0.4882l0.2608-0.0513l2.3706-0.4607c0.8683-0.1688,1.298-0.2378,2.1222,0.1018l0.0902-0.2017
		c-0.2017-0.1476-0.3732-0.3006-0.4245-0.5623c-0.1291-0.6613,0.0645-1.3564,0.2441-1.978
		c-0.4917-0.4049-0.7834-0.9487-0.9054-1.5695c-0.0178-0.0963-0.0426-0.2917-0.0426-0.2917l-0.9708,0.8171l-0.9073,0.778
		c0,0-1.5333-1.046-2.8277-0.7948c-0.7445,0.1458-1.1972,0.7631-1.5297,1.3987l1.841,1.5298
		c-0.6597,0.2148-0.9692,0.5322-1.3299,1.1026L110.1958,52.9182L110.1958,52.9182z M112.257,49.3857l-0.1742,0.8055l-1.6667,0.3245
		l-0.8877-0.7419c0.3129-0.5199,0.7162-1.0257,1.3352-1.1476c0.511-0.0991,1.5757-0.0628,1.5615,0.0123L112.257,49.3857
		L112.257,49.3857z M113.9989,49.8189l-1.6394,0.3193l0.1662-0.7622l0.1451-0.6561l0.8984-0.7481l0.7499-0.6313L113.9989,49.8189z"
		/>
	<path class="st0" d="M110.2958,53.6946c-0.0849,0.9505-0.3821,1.9204-0.9762,2.6915c0.6101,0.5386,1.0382,1.2343,1.3848,1.9789
		l3.8322-0.3343c1.0769-0.0954,1.3475-0.2316,1.9735-1.1177l-1.8373-1.8391l2.39-0.2104c0.7702-0.0672,1.3078-0.0442,1.8011,0.6039
		L119,55.4125c-0.1556-0.6499-0.4491-1.1026-0.9619-1.5085c0.2369-0.3457,0.4172-0.6852,0.5092-1.0885l-0.1751-0.0681
		c-0.3872,0.5554-0.6595,0.6782-1.3297,0.7367l-5.2603,0.4598l-0.3475,0.0319c-0.3785,0.0326-0.7604,0.0228-0.9992-0.2944
		L110.2958,53.6946L110.2958,53.6946z M114.3507,55.1004l1.048,1.0355c-0.3008,0.4208-0.6907,0.4837-1.1787,0.5262l-3.7217,0.327
		l0.5244-1.5968L114.3507,55.1004z"/>
	<path class="st0" d="M10.4106,85.9084l0.1451-0.3165l-0.7693-0.3696c0.2528-0.7975,0.2669-1.6977-0.0531-2.4916
		c-0.2477-0.6119-0.5784-1.1302-0.9974-1.6421c1.4732,0.7977,2.7038,1.406,4.3698,0.733c0.7675-0.3095,1.4554-0.7843,2.2105-1.0894
		c0.8699-0.3528,1.3969,0.0867,1.8196,0.8701l0.2407-0.2653c-0.5625-1.3917-1.6412-2.1521-3.1515-1.542
		c-0.7285,0.2954-1.3643,0.7481-2.0919,1.0416c-1.3821,0.5588-2.6696,0.3669-3.9367-0.4828c1.1965,0.3024,2.2247,0.373,3.4095-0.107
		c0.8471-0.3414,1.6059-0.8604,2.4512-1.2017c0.8594-0.3475,1.5101-0.1255,2.3094,0.3537l0.1487-0.1945
		c-0.3484-0.2997-0.6579-0.6137-0.8259-1.0309c-0.2528-0.6244-0.0777-1.3158-0.3289-1.9409
		c-0.3122-0.6923-1.2115-1.0849-1.9277-0.7968c-0.1822,0.0744-0.3439,0.1999-0.4917,0.3202l0.1858,0.1981
		c0.0724-0.0451,0.1396-0.1027,0.2193-0.1344c0.3254-0.1318,0.7267-0.0364,0.8683,0.3156c0.1733,0.4288,0.0531,0.9178,0.2307,1.3591
		c0.153,0.3783,0.3917,0.7055,0.6306,1.0327c-0.948-0.4333-1.6906-0.5128-2.681-0.1132c-0.1557,0.0636-0.3006,0.1537-0.458,0.2157
		c-0.0159-0.1901-0.054-0.3573-0.1257-0.5393c-0.1945-0.4051-0.5978-0.6517-1.0291-0.7809l-0.0531,0.2043
		c0.1856,0.1211,0.3227,0.2767,0.4084,0.4855c0.2849,0.7028-0.1749,1.1769-0.7816,1.4349c0.0496-0.2457,0.0583-0.4915-0.0371-0.7258
		c-0.1202-0.2999-0.3988-0.4598-0.6932-0.5545l-0.0902,0.1892c0.0991,0.0963,0.1733,0.2034,0.2193,0.3202
		c0.2068,0.5092-0.1592,0.9886-0.6155,1.1724c-0.9319,0.3165-2.0876-0.3678-2.8311-0.8993l-0.1981,0.2609
		c1.0009,0.7923,1.8127,1.7508,2.2919,2.9356c0.3678,0.9107,0.3165,1.9471,0.0531,2.8701L10.4106,85.9084z"/>
	<path class="st0" d="M14.1084,92.2695l0.0795-0.2166c-0.1451-0.0733-0.2954-0.1282-0.3855-0.2724
		c-0.1344-0.2963,0.1963-0.5358,0.4582-0.6994l0.2246-0.1414l2.0496-1.2787c0.7499-0.4687,1.1247-0.688,2.0179-0.665l0.0105-0.2211
		c-0.2405-0.0672-0.4562-0.1467-0.5976-0.3739c-0.3573-0.5712-0.4254-1.2901-0.4793-1.9338
		c-0.6066-0.1997-1.0735-0.6047-1.4076-1.1405c-0.0531-0.0831-0.1451-0.2564-0.1451-0.2564l-0.6137,1.1104l-0.5677,1.0523
		c0,0-1.8073-0.4288-2.9268,0.2705c-0.642,0.4015-0.8435,1.1389-0.9275,1.8542l2.2672,0.7684
		c-0.5367,0.437-0.7137,0.8437-0.8444,1.5059L14.1084,92.2695L14.1084,92.2695z M14.7645,88.2321l0.1273,0.8153l-1.4395,0.9002
		l-1.0965-0.3749c0.1079-0.5969,0.3024-1.2149,0.8383-1.5492c0.4404-0.2742,1.4465-0.6242,1.4607-0.5491L14.7645,88.2321
		L14.7645,88.2321z M16.5472,88.013l-1.4167,0.8841l-0.1166-0.7693l-0.1027-0.6657l0.573-1.0179l0.4723-0.8594L16.5472,88.013z"/>
	<path class="st0" d="M14.7768,95.1274l1.5085,0.3696l0.1097-0.6686l2.9231-2.3679l1.337,0.2901
		c-0.0018,0.5092-0.176,0.7196-0.5677,1.038l-2.6173,2.1222c-1.5182,1.2272-2.3627,1.0098-3.9984,0.1273l-0.1432,0.2245
		c0.8082,0.4846,1.6588,0.9532,2.5801,1.1999c1.2026,0.3263,2.0354-0.0954,2.9516-0.8373l2.1716-1.7587
		c0.8401-0.68,1.0557-1.0177,1.0081-2.0796l-2.4706-0.5288l1.9523-1.5818c0.6014-0.4864,0.9797-0.5748,1.7207-0.3088l0.0779-0.1724
		c-0.4846-0.419-1.0222-0.7251-1.68-0.7347c0.0246-0.4165,0.0282-0.8357-0.1-1.2379l-0.2113,0.0273
		c-0.0187,0.6472-0.2211,0.9551-0.711,1.3529l-5.1072,4.1346l-0.7128-0.1451L14.7768,95.1274z"/>
	<path class="st0" d="M26.086,98.3963c-0.4491-0.7064-0.7408-1.4563-0.8929-2.268c-0.7747-0.0266-1.5333-0.2113-2.2247-0.5465
		l-2.2124,2.292c-0.2352,0.2423-0.4793,0.4757-0.7533,0.6985c-0.1858,0.1512-0.3839,0.1556-0.6032,0.1398l-0.1166,0.121
		c0.6383,0.7128,0.9619,1.6111,1.0965,2.5423c0.7763,0.0654,1.5155,0.3307,2.2352,0.6171l0.2441-0.253L26.086,98.3963
		L26.086,98.3963z M23.987,96.4872l0.6117,1.4697l-2.955,3.0575l-0.6101-1.4677L23.987,96.4872z"/>
	<path class="st0" d="M26.6731,99.1885l0.0072,0.2591l0.5375-0.0177c0.0742,0.4227-0.0654,0.6164-0.3395,0.9551l-1.7754,2.1928
		c-0.2919,0.3607-0.6014,0.6331-1.078,0.573l-0.0963,0.1202c0.4438,0.5217,0.6155,1.2017,0.6861,1.8746l2.1859-0.0018
		l-0.0125-0.2979l-0.8187-0.0134l-0.2175-0.8258l2.4829-3.0666l0.7463-0.0283l-0.0018,1.3183l1.298-0.0857l0.0018-1.6075
		l-1.7173,0.0902c0.1662-0.4969,0.1407-1.0222-0.0583-1.4909L26.6731,99.1885z"/>
	<path class="st0" d="M32.4136,108.831l-0.0141-0.2405l-1.2115,0.0549c-0.2264-0.4067-0.4668-0.7886-0.7073-1.1716l0.6843-1.0938
		l3.2699-0.4402l-0.2847-2.7774c-1.0204-0.008-2.0356-0.1309-3.0454-0.2644l-0.0264,0.1494
		c0.3095,0.1927,0.274,0.4359,0.1025,0.7091l-0.1353,0.215l-1.3167,2.1079c-0.2439,0.3926-0.527,0.8453-1.061,0.825l-0.0742,0.1193
		c0.5871,0.5165,1.0134,1.2122,1.3564,1.9081L32.4136,108.831L32.4136,108.831z M31.4109,105.9857l1.5916-2.5466l0.2405,2.3176
		L31.4109,105.9857z"/>
	<path class="st0" d="M35.3579,110.7083l-0.4297-1.3415l-1.3493,0.4431c0.115,0.3801,0.2935,0.7914,0.0902,1.1769
		c-0.1856,0.3466-0.6153,0.4368-0.9868,0.5092l-0.0389,0.3131C33.6816,111.9488,34.6736,111.489,35.3579,110.7083z"/>
	<path class="st0" d="M42.7447,116.721l2.2654,0.6057l0.6315-2.3574c0.6702,0.2662,1.5226,0.8294,2.0496,1.3033l2.421-1.2263
		l1.1159-4.163c0.4652-1.7348-0.5147-2.9126-1.6517-4.0895l-1.9259,0.6756l0.2619-0.9762l-0.2849-0.077l-0.3111,1.1664
		l-0.7747,0.2865c0.253-1.0514-0.2334-1.9507-1.291-2.2354c-0.7055-0.1874-1.4165,0.0283-2.0159,0.4192l0.1307,0.2678
		c0.3325-0.1,0.6702-0.1688,1.0098-0.077c0.9904,0.2644,0.7941,1.4324,0.5943,2.1789l-2.704,0.9752l0.0123,0.222
		c0.5183,0.2405,0.9152,0.6525,1.229,1.1122c0.4812,0.7551,0.4227,1.5688,0.2017,2.3954c-1.2079-0.1052-2.3538,0.3723-3.3548,1.0195
		l0.0886,0.2131c0.969-0.3069,1.9735-0.3149,2.9639-0.107L42.7447,116.721L42.7447,116.721z M44.1543,116.7784l2.2953-8.5698
		l0.7747-0.2865l-2.4193,9.0305L44.1543,116.7784L44.1543,116.7784z M45.9934,113.6526l0.3325-1.2334
		c0.5022-0.1423,1.0521-0.2414,1.5668-0.1027c0.5165,0.1371,0.9196,0.4775,1.2662,0.8613l-0.5445,2.0356
		C47.8184,114.5485,46.9767,114.0038,45.9934,113.6526L45.9934,113.6526z M46.4125,112.0938l0.4971-1.8587
		c0.3412,0.3537,0.7347,0.6766,1.2095,0.8039c0.557,0.1485,1.1054,0.0494,1.635-0.084l-0.4926,1.8437
		c-0.3732-0.3459-0.7763-0.6296-1.2787-0.7631C47.4682,111.8966,46.9148,111.9524,46.4125,112.0938L46.4125,112.0938z
		 M47.0084,109.87l0.5518-2.063l0.8153-0.2742c0.8515,0.7225,1.8551,1.7031,1.528,2.9233c-0.0107,0.0407-0.0389,0.092-0.0496,0.1318
		c-0.4951,0.2184-1.1088,0.2856-1.6376,0.1432C47.7283,110.5995,47.3108,110.2565,47.0084,109.87L47.0084,109.87z M43.4115,109.298
		l1.459-0.5103l-0.4732,1.7633C44.1507,110.0636,43.8077,109.6658,43.4115,109.298z"/>
	<path class="st0" d="M57.9127,116.5415l-0.1237-0.1929c-0.1469,0.0717-0.2812,0.1592-0.4493,0.1432
		c-0.3184-0.0706-0.3113-0.4775-0.2847-0.7852l0.0239-0.2653l0.2113-2.4059c0.0761-0.8815,0.1291-1.314,0.6825-2.0124
		l-0.1715-0.1405c-0.1945,0.1519-0.389,0.274-0.6561,0.2528c-0.6711-0.0592-1.2857-0.4368-1.8339-0.7816
		c-0.5252,0.3625-1.1282,0.4933-1.7578,0.4377c-0.0981-0.008-0.2917-0.0398-0.2917-0.0398l0.5181,1.1582l0.4969,1.0876
		c0,0-1.4288,1.1867-1.5438,2.5006c-0.0656,0.7551,0.4031,1.3591,0.923,1.856l1.9789-1.3493
		c0.023,0.6941,0.2441,1.0778,0.6932,1.5836L57.9127,116.5415L57.9127,116.5415z M55.085,113.59l0.7269,0.3872l-0.1487,1.6925
		l-0.9585,0.6472c-0.412-0.442-0.7886-0.969-0.7338-1.5986c0.046-0.5181,0.373-1.5315,0.442-1.4962L55.085,113.59L55.085,113.59z
		 M55.9815,112.0319l-0.1451,1.6642l-0.6861-0.3687l-0.5923-0.3202l-0.4705-1.069l-0.3997-0.8949L55.9815,112.0319z"/>
	<path class="st0" d="M64.8538,116.4716l-0.1449-0.2079l-0.3732,0.3008c-0.7021-0.7747,0.0531-1.7145-1.5014-3.1196
		c-0.0282-0.0266-0.0708-0.069-0.1132-0.0954l1.4766-1.3882l-1.3422-1.3812l-1.7526,1.7578l-0.0458-2.5829
		c-0.0143-0.7993,0.0228-1.0947,0.7303-1.5713l-0.046-0.1945c-0.6702,0.1653-1.199,0.3855-1.6676,0.8984
		c-0.2865-0.3165-0.6702-0.5217-1.0787-0.6278l-0.0813,0.1715c0.596,0.3962,0.7037,0.8578,0.7162,1.5599l0.0954,5.544
		c0.0071,0.4076,0.0141,0.8144-0.4315,0.992l0.0036,0.1947c0.6481,0.1856,1.245,0.5128,1.6888,1.0098l1.756-1.505
		c0.0938,0.5465,0.2705,1.0346,0.6438,1.4625L64.8538,116.4716L64.8538,116.4716z M61.1685,116.1435l-0.023-1.321l0.58-0.5429
		c0.6401,0.4377,0.8312,0.8984,0.9692,1.6253l-0.8296,0.7171L61.1685,116.1435L61.1685,116.1435z M61.1402,114.4574l-0.0319-1.7544
		l1.0212-1.015l0.9435,0.9806L61.1402,114.4574z"/>
	<path class="st0" d="M68.9902,115.9756l-0.1963-0.2159l-0.3767,0.3997l-0.4315-0.3006l-0.5288-4.3061l0.421-0.4889l-1.2734-0.8057
		l-1.0451,1.0471l0.5377,0.3589l0.4208,3.4132l0.0159,0.1396c0.0485,0.4049,0.0654,0.7551-0.3325,0.9744l0.0159,0.1246
		c0.5252,0.2468,1.0221,0.6103,1.4643,0.9806L68.9902,115.9756L68.9902,115.9756z M66.5807,109.0441l0.3388-0.0132l0.9638-1.7171
		l-1.1619,0.0998L66.5807,109.0441z"/>
	<path class="st0" d="M70.1892,116.8581l0.2104,0.1132c0.3855-0.4846,0.7376-0.7162,1.2591-0.8278
		c0.4935-0.1043,0.9958-0.0397,1.6369,0.2122c0.4783-0.6613,0.9982-1.1168,1.6684-1.4748l-0.5693-2.6776l-1.5722-0.5128
		l0.8118-1.8524c0.3077-0.71,0.3942-1.0452,0.3218-1.3873c-0.0761-0.3573-0.3147-0.5367-0.6171-0.4723
		c-0.2334,0.0496-0.3625,0.2494-0.3131,0.4828c0.0938,0.4395,0.3714,0.2653,0.4511,0.6358
		c0.0503,0.2466-0.1963,0.5005-0.5802,0.5827c-0.5773,0.1221-1.1441,0.0849-1.8904-0.115c-0.3325,0.7303-0.7224,1.13-1.5421,1.5907
		l0.5156,2.4307l1.4281,0.4297L70.1892,116.8581L70.1892,116.8581z M73.162,113.2256l0.3944,1.8551
		c-0.596-0.1751-0.9938-0.2193-1.3926-0.1353c-0.3423,0.0724-0.5014,0.1353-0.91,0.3785l1.0186-2.3688L73.162,113.2256
		L73.162,113.2256z M71.1725,112.5732l-0.3908-1.8411c0.4703,0.1876,1.0539,0.2352,1.5208,0.1362
		c0.1786-0.0371,0.2476-0.0531,0.5404-0.1574l-0.917,2.1028L71.1725,112.5732z"/>
	<path class="st0" d="M75.2602,109.3297l0.0699,0.2141l0.5748-0.1865l1.0963,3.3777l0.0831,0.2537
		c0.1371,0.4281,0.2017,0.8066-0.0936,1.1673l0.0565,0.1733c0.6526-0.0355,1.3078,0.1202,1.871,0.4411l1.0327-1.6358l-0.2599-0.1671
		l-0.306,0.4705c-0.2651-0.0911-0.5181-0.1865-0.7886-0.2466l-1.383-4.2594l1.1213-0.3634l-0.2352-0.7215l-1.1213,0.3643
		l-0.6454-1.9905L75.2602,109.3297z"/>
	<path class="st0" d="M86.1087,110.5421l-0.2016-0.1088c-0.0936,0.1335-0.1697,0.2751-0.3236,0.3448
		c-0.3113,0.0902-0.5022-0.2705-0.6296-0.5516l-0.1087-0.2423l-0.9806-2.2071c-0.3607-0.8082-0.5253-1.2113-0.3794-2.0903
		l-0.2166-0.0406c-0.0991,0.228-0.2088,0.4297-0.4509,0.5384c-0.6182,0.2751-1.337,0.2414-1.9842,0.2061
		c-0.283,0.573-0.7472,0.9788-1.3247,1.2352c-0.0902,0.0407-0.2742,0.107-0.2742,0.107l1.0152,0.7622l0.9603,0.7091
		c0,0-0.6738,1.7296-0.1371,2.9356c0.3086,0.6914,1.0107,0.9938,1.7073,1.176l1.0753-2.1381
		c0.3573,0.5943,0.7374,0.8241,1.3741,1.0471L86.1087,110.5421L86.1087,110.5421z M82.2032,109.3297l0.825-0.0141l0.6914,1.5527
		l-0.5252,1.0337c-0.5748-0.19-1.1602-0.4659-1.4166-1.0442c-0.2122-0.4748-0.4156-1.521-0.3395-1.5226L82.2032,109.3297
		L82.2032,109.3297z M82.2341,107.5347l0.6809,1.5262l-0.7799,0.0089l-0.6738,0.0071l-0.9284-0.7073l-0.7852-0.5873
		L82.2341,107.5347z"/>
	<path class="st0" d="M84.74,105.7539l0.2519,0.092c0.061-0.1166,0.1212-0.2352,0.2282-0.3006
		c0.23-0.1362,0.4254,0.1061,0.5634,0.3343c0.0565,0.0963,0.1043,0.1997,0.1396,0.2599l1.8516,3.0807l-0.2106,0.7162l1.551,0.2626
		l0.5217-1.4757l-0.6686-0.1874l-1.9824-3.2973l0.4192-1.1841l0.7577,0.199l1.8084,3.0073
		c0.5056,0.8435,0.8258,1.1582,1.7913,1.3475l0.649-1.7826l-0.2883-0.1528c-0.0706,0.1565-0.0866,0.3473-0.2439,0.4402
		c-0.1202,0.0726-0.2494,0.0187-0.3432-0.0549c-0.1697-0.144-0.2917-0.3491-0.4085-0.5411l-0.1077-0.1813l-1.2149-2.0213
		c-0.4545-0.7579-0.5643-1.1027-0.3254-1.9329l-0.2849-0.0911l-0.2405,0.8808l-1.3864-0.3459l-0.7551,2.124
		c-0.3678-0.6137-0.7481-0.7287-1.4235-0.8153L84.74,105.7539z"/>
	<path class="st0" d="M93.0853,98.9667l1.3192,0.0353l0.4527-3.2619c0.5748,0.0196,1.015,0.2034,1.4183,0.6358
		c1.8958,2.0329-0.0107,5.4026,1.3846,7.8254l0.1999-0.0328c0.3147-0.7736,0.787-1.5023,1.4042-2.0769
		c0.5748-0.5358,1.2839-0.9082,2.0249-1.1204l-0.0549-1.81c-0.7977,0.3598-1.5775,0.7975-2.2247,1.4023
		c-0.6474,0.603-1.1001,1.3529-1.4768,2.1434c-0.1432-2.3989,1.8516-5.2195-0.1114-7.3248
		c-0.1344-0.1432-0.2582-0.276-0.4015-0.4113l-3.482,0.6925L93.0853,98.9667z"/>
	<path class="st0" d="M105.6943,96.0275c0.3325-1.9523-0.2564-4.1451-1.8286-5.4167c-1.5925-1.291-3.5439-1.3352-5.2965-0.3528
		c-0.1715,1.9744,0.2015,4.1018,1.8268,5.4176C101.977,96.9568,103.9356,96.9718,105.6943,96.0275L105.6943,96.0275z
		 M105.3619,94.3855c-1.6057,0.9576-3.491,1.1653-5.0189-0.0717c-0.7198-0.5817-1.2327-1.4668-1.4661-2.3608
		c1.6093-1.2079,3.627-1.1097,5.1762,0.1441C104.7623,92.6719,105.2346,93.4703,105.3619,94.3855z"/>
	<path class="st0" d="M110.424,89.1562c0.0592-1.9789-0.8312-4.0692-2.5642-5.1109c-1.7553-1.0548-3.6935-0.8285-5.2939,0.3892
		c0.1043,1.9789,0.7711,4.0328,2.5642,5.11C106.8729,90.5932,108.8156,90.3349,110.424,89.1562L110.424,89.1562z M109.8679,87.576
		c-1.459,1.1716-3.2973,1.6403-4.9799,0.6278c-0.7959-0.4775-1.4255-1.2803-1.7817-2.1345c1.4272-1.4192,3.4369-1.603,5.1471-0.5766
		C109.0349,85.9633,109.6149,86.6884,109.8679,87.576z"/>
	<path class="st0" d="M106.5042,81.5157l1.2115-0.5253l-0.9692-3.147c0.5306-0.2255,1.0081-0.2448,1.5545-0.0239
		c2.5758,1.0416,2.2743,4.9023,4.5627,6.508l0.1679-0.1141c-0.0433-0.8346,0.0779-1.695,0.3944-2.4758
		c0.2935-0.7294,0.7781-1.3661,1.3618-1.8719l-0.8162-1.6171c-0.5704,0.6622-1.0921,1.3908-1.4228,2.2114
		c-0.3307,0.8196-0.4261,1.6897-0.4315,2.5658c-1.1441-2.1131-0.5286-5.5122-3.1973-6.5909
		c-0.1822-0.0724-0.35-0.1423-0.5384-0.2025l-2.8614,2.0992L106.5042,81.5157z"/>
	<polygon class="st1" points="85.9955,86.2639 85.9955,90.0626 85.9955,92.366 79.058,92.366 64.6593,98.9569 57.1363,98.9569 
		42.3487,92.236 35.2802,92.236 35.2802,89.9316 35.2802,85.8713 35.2802,80.9913 42.0904,80.9913 58.6289,88.0395 63.1686,88.0395 
		79.1216,81.383 85.9955,81.383 	"/>
	<path class="st2" d="M46.4002,86.4399h1.4483v3.8871c0,0.6171,0.0177,1.0177,0.0549,1.2008
		c0.0619,0.2935,0.2086,0.5295,0.4402,0.7091c0.2352,0.1758,0.5536,0.2644,0.9578,0.2644c0.4129,0,0.7224-0.0831,0.931-0.2494
		c0.2104-0.1699,0.3361-0.3767,0.3767-0.6217c0.0442-0.2448,0.0656-0.6517,0.0656-1.2193v-3.9711h1.4483v3.7703
		c0,0.8613-0.0389,1.4704-0.1168,1.8259c-0.0795,0.3573-0.2245,0.6561-0.4377,0.902c-0.2077,0.2439-0.4889,0.4402-0.8408,0.5862
		c-0.352,0.1432-0.8136,0.2157-1.3812,0.2157c-0.6845,0-1.2062-0.0786-1.5615-0.2351c-0.352-0.1601-0.6315-0.3662-0.8366-0.6173
		c-0.2059-0.2537-0.3412-0.5208-0.4067-0.7975c-0.0954-0.4111-0.1414-1.0186-0.1414-1.8207V86.4399z"/>
	<path class="st2" d="M62.0862,94.894l1.4033,0.4455c-0.2131,0.7836-0.5721,1.3654-1.076,1.7473
		c-0.4987,0.3785-1.1336,0.5677-1.9029,0.5677c-0.9549,0-1.7366-0.3245-2.3503-0.9735c-0.6135-0.6535-0.9212-1.5431-0.9212-2.673
		c0-1.1937,0.3077-2.1222,0.9248-2.7817c0.6171-0.6624,1.429-0.9922,2.4333-0.9922c0.879,0,1.5918,0.2573,2.139,0.7772
		c0.3281,0.3068,0.5721,0.7472,0.7349,1.3219l-1.4342,0.343c-0.0849-0.373-0.2635-0.6666-0.5342-0.8806
		c-0.2669-0.2157-0.5923-0.3236-0.9779-0.3236c-0.5322,0-0.9638,0.1892-1.298,0.573c-0.3289,0.3812-0.4933,1.0009-0.4933,1.8551
		c0,0.9073,0.1626,1.5545,0.488,1.9382c0.327,0.3855,0.7515,0.5784,1.2732,0.5784c0.3855,0,0.7162-0.123,0.9938-0.3678
		C61.7662,95.8038,61.966,95.4183,62.0862,94.894z"/>
	<path class="st2" d="M68.5782,93.6172v-7.1773h2.3255c0.8806,0,1.4554,0.0362,1.7223,0.1079
		c0.4122,0.1087,0.7569,0.3439,1.0327,0.7046c0.2778,0.3607,0.4174,0.8259,0.4174,1.3953c0,0.4413-0.0795,0.8118-0.2405,1.1124
		c-0.1601,0.2988-0.3644,0.5377-0.6128,0.7091c-0.2432,0.1697-0.4942,0.2829-0.749,0.3386
		c-0.3448,0.0681-0.8453,0.1034-1.5014,0.1034h-0.9442v2.7058H68.5782L68.5782,93.6172z M70.0284,87.6539v2.0372h0.7923
		c0.5712,0,0.9531-0.038,1.1459-0.1123c0.1909-0.0751,0.3412-0.1927,0.4491-0.3528c0.1114-0.1601,0.1662-0.3457,0.1662-0.5579
		c0-0.2609-0.0761-0.4766-0.2298-0.6465c-0.1521-0.1697-0.3466-0.2758-0.5818-0.3182c-0.1733-0.0328-0.5199-0.0487-1.0434-0.0496
		H70.0284z"/>
	<polygon class="st0" points="60.5971,85.9428 60.8219,85.9428 60.8378,85.9385 60.851,85.9262 60.8554,85.9093 60.7847,51.995 
		60.859,51.9809 60.912,52.1401 60.6927,52.1506 60.6802,53.4381 60.6645,56.86 60.6431,61.7497 60.6194,67.4406 60.5989,73.2693 
		60.5796,78.5676 60.5671,82.6705 60.5618,85.9093 60.5671,85.9262 60.5796,85.9385 	"/>
	<rect x="59.8934" y="18.3167" class="st0" width="1.4766" height="41.3259"/>
	<rect x="59.8934" y="18.3167" class="st1" width="1.4766" height="41.3259"/>
	<polygon class="st1" points="55.6916,28.6401 55.7233,55.8874 60.5707,59.6383 65.1758,55.891 65.1086,28.5348 69.7436,33.2089 
		69.6304,35.6759 68.4296,35.6953 68.4296,33.5678 66.4048,31.6526 66.4048,56.7026 60.5866,61.3571 54.5403,56.6612 
		54.6216,31.5377 52.7152,33.5034 52.7152,48.2398 51.5199,47.3025 51.5199,33.2991 	"/>
	<polygon class="st0" points="68.5286,48.1831 68.5286,37.8086 69.8073,37.8086 69.8073,46.8967 	"/>
	<polygon class="st1" points="68.5286,48.1831 68.5286,37.8086 69.8073,37.8086 69.8073,46.8967 	"/>
	<polygon class="st1" points="57.2725,25.7655 58.4697,25.7655 58.4697,48.5502 60.8059,49.8216 62.5761,48.5696 62.5708,25.7204 
		63.9149,25.7204 63.9272,49.1416 60.7299,51.4123 57.2725,49.3459 	"/>
	<polygon class="st3" points="77.3701,59.9026 77.3533,59.953 79.4417,57.3419 82.1669,58.9079 82.0786,78.7393 62.7776,86.5433 
		58.804,86.5344 39.8755,78.863 39.8851,58.9079 42.163,57.5108 44.6387,59.8027 42.163,58.5083 42.1542,77.6692 60.6989,85.2541 
		79.5037,77.5428 79.4736,67.8296 79.5301,58.7205 79.4541,58.6328 	"/>
	<polygon class="st3" points="74.5609,56.3631 74.5449,56.4055 76.2957,54.0173 78.577,55.4506 78.5044,73.6125 62.3392,80.7606 
		59.011,80.7535 43.1603,73.7248 43.1692,55.4506 45.0757,54.1721 47.15,56.2711 45.0757,55.0846 45.0686,72.6319 60.6007,79.581 
		76.3469,72.5178 76.3221,63.6226 76.3681,55.2791 76.3046,55.1985 	"/>
	<polygon class="st3" points="72.032,53.026 72.0187,53.0676 73.4432,50.8154 75.2983,52.1656 75.2381,69.2772 62.0933,76.0105 
		59.3858,76.0034 46.4956,69.3824 46.501,52.1656 48.0537,50.9623 49.7407,52.9394 48.0537,51.8217 48.0466,68.3531 
		60.6786,74.8982 73.4839,68.2452 73.4644,59.8646 73.5015,52.0048 73.4493,51.9297 	"/>
	<polygon class="st3" points="69.779,49.6385 68.4863,50.5114 70.9992,47.6102 72.5041,48.849 72.4564,64.5581 61.7892,70.7406 
		59.5928,70.7336 49.1324,64.6553 49.1377,48.849 50.3968,47.7436 52.8815,50.5476 51.6153,49.5599 50.3968,48.5343 
		50.3915,63.7109 60.6415,69.7202 71.032,63.6119 71.017,55.9174 71.047,48.7021 71.0045,48.6324 	"/>
	<polygon class="st3" points="51.5816,49.5051 52.8125,50.4618 52.8125,59.2509 60.6149,65.1417 68.5074,59.2652 68.3323,50.3919 
		69.6181,49.5891 69.6215,60.0265 61.805,65.9729 59.6689,65.9729 51.5816,60.0768 	"/>
	<path class="st4" d="M61.2503,15.1255c-24.5941,0.0009-44.5336,20.0369-44.5338,44.7404
		c0.0002,24.7029,19.9396,44.7391,44.5338,44.7399c24.5937-0.0009,44.5335-20.037,44.5337-44.7399
		C105.7838,35.1623,85.844,15.1263,61.2503,15.1255z M91.8464,90.6099c-7.8338,7.8695-18.6476,12.735-30.5961,12.7353
		c-11.9487-0.0004-22.7625-4.8659-30.5963-12.7353c-7.8327-7.8705-12.6767-18.7369-12.6769-30.744
		c0.0003-12.0075,4.8443-22.874,12.6769-30.7445c7.8338-7.8695,18.6476-12.735,30.5963-12.7353
		c11.9485,0.0003,22.7623,4.8658,30.5961,12.7353c7.8327,7.8706,12.6767,18.737,12.677,30.7445
		C104.5231,71.873,99.6791,82.7394,91.8464,90.6099z"/>
</g>
</svg>
